<svg width="20" height="16" viewBox="0 0 20 16" fill="none" xmlns="http://www.w3.org/2000/svg">
<path d="M9.08334 5.25033C9.08334 6.77199 7.85501 8.00032 6.33334 8.00032C4.81168 8.00032 3.58334 6.77199 3.58334 5.25033C3.58334 3.72866 4.81168 2.50033 6.33334 2.50033C7.85501 2.50033 9.08334 3.72866 9.08334 5.25033ZM11.8333 15.3337H0.833344V13.5003C0.833344 11.4745 3.29918 9.83366 6.33334 9.83366C9.36751 9.83366 11.8333 11.4745 11.8333 13.5003V15.3337ZM19.1667 8.00032V9.83366H10.9167V8.00032H19.1667ZM19.1667 4.33366V6.16699H10.9167V4.33366H19.1667ZM19.1667 0.666992V2.50033H10.9167V0.666992H19.1667Z" fill="#2D9CDB"/>
</svg>
